<?xml version="1.0" encoding="utf-8"?>
<!-- Generator: Adobe Illustrator 27.9.0, SVG Export Plug-In . SVG Version: 6.00 Build 0)  -->
<svg version="1.1" id="Layer_1" xmlns="http://www.w3.org/2000/svg" xmlns:xlink="http://www.w3.org/1999/xlink" x="0px" y="0px"
	 viewBox="0 0 80 30" style="enable-background:new 0 0 80 30;" xml:space="preserve">
<style type="text/css">
	.st0{fill:#FFFFFF;}
</style>
<g>
	<g>
		<path class="st0" d="M4.3,3v14.7h7v3.1H1.7V3H4.3z"/>
		<path class="st0" d="M22.8,17.4h-7.1l-1.2,3.4h-2.8L17.9,3h2.8l6.1,17.8H24L22.8,17.4z M19.3,6.7l-2.5,7.6h5.1L19.3,6.7z"/>
		<path class="st0" d="M36.2,7.3c-0.5-1-1.8-2-3.2-2c-1.9,0-2.8,1-2.8,2.4c0,1.6,1.4,2,3,2.2c2.8,0.5,5.5,1.4,5.5,5.7
			c0,4-2.7,5.7-5.7,5.7c-2.8,0-4.9-1.1-5.9-4.4l2.1-1.4c0.6,2,2.2,2.8,3.8,2.8c1.6,0,3.1-0.7,3.1-2.7c0-1.7-1.3-2.4-3.2-2.6
			c-2.8-0.4-5.4-1.4-5.4-5.4c0-3.7,2.8-5.2,5.3-5.2c2.1,0,4.3,0.8,5.4,3.5L36.2,7.3z"/>
		<path class="st0" d="M52.6,18.6c-1.4,1.8-3.2,2.6-5.2,2.6c-5.1,0-7.2-4.6-7.2-9.2c0-4.7,2.3-9.4,7.2-9.4c1.9,0,3.6,0.9,5,2.7
			l-1.7,2.2c-0.9-1.1-2.1-1.7-3.3-1.7c-3.3,0-4.7,3.2-4.7,6.2c0,3,1.3,6,4.7,6c1.2,0,2.5-0.6,3.4-1.8L52.6,18.6z"/>
		<path class="st0" d="M63.2,17.4H56l-1.2,3.4h-2.8L58.2,3H61l6.1,17.8h-2.8L63.2,17.4z M59.6,6.7l-2.5,7.6h5.1L59.6,6.7z"/>
		<path class="st0" d="M76.5,7.3c-0.5-1-1.8-2-3.2-2c-1.9,0-2.8,1-2.8,2.4c0,1.6,1.4,2,3,2.2c2.8,0.5,5.5,1.4,5.5,5.7
			c0,4-2.7,5.7-5.7,5.7c-2.8,0-4.9-1.1-5.9-4.4l2.1-1.4c0.6,2,2.2,2.8,3.8,2.8c1.6,0,3.1-0.7,3.1-2.7c0-1.7-1.3-2.4-3.2-2.6
			c-2.8-0.4-5.4-1.4-5.4-5.4c0-3.7,2.8-5.2,5.3-5.2c2.1,0,4.3,0.8,5.4,3.5L76.5,7.3z"/>
	</g>
	<g>
		<path class="st0" d="M58.3,23.8c0-1.1,1.2-1.4,2.2-1.4c1.1,0,2.2,0.4,2.2,1.5c0,1.1-1.2,1.5-2.2,1.5c-0.8,0-1.8,0.2-1.8,1.1v0.8h4
			v0.4h-4.4v-1.2c0-1.1,1.2-1.4,2.3-1.4c0.8,0,1.8-0.3,1.8-1.1c0-0.9-1-1.2-1.8-1.2c-0.8,0-1.8,0.2-1.8,1.1H58.3z"/>
		<path class="st0" d="M63.7,24.3c0-2.7,4.5-2.7,4.5,0v1.2c0,2.7-4.5,2.7-4.5,0V24.3z M64.1,25.6c0,2.2,3.6,2.2,3.6,0v-1.2
			c0-2.2-3.6-2.2-3.6,0V25.6z"/>
		<path class="st0" d="M68.8,23.8c0-1.1,1.2-1.4,2.2-1.4c1.1,0,2.2,0.4,2.2,1.5c0,1.1-1.2,1.5-2.2,1.5c-0.8,0-1.8,0.2-1.8,1.1v0.8h4
			v0.4h-4.4v-1.2c0-1.1,1.2-1.4,2.3-1.4c0.8,0,1.8-0.3,1.8-1.1c0-0.9-1-1.2-1.8-1.2c-0.8,0-1.8,0.2-1.8,1.1H68.8z"/>
		<path class="st0" d="M74.3,24.7v-2.4h4v0.4h-3.6v1.7h1.9c1.6,0,2.1,0.8,2.1,1.6c0,0.8-0.7,1.6-2.3,1.6c-1.1,0-2.2-0.3-2.3-1.5h0.4
			c0,0.9,1,1.1,1.8,1.1c1.2,0,1.8-0.5,1.8-1.2c0-0.6-0.3-1.2-1.6-1.2H74.3z"/>
	</g>
</g>
</svg>
